<svg xmlns="http://www.w3.org/2000/svg" viewBox="0 0 500 755" width="500" height="755">
  <defs>
    <linearGradient id="bg" x1="0" y1="0" x2="1" y2="1">
      <stop offset="0%" stop-color="#1a1c25"/>
      <stop offset="100%" stop-color="#0a0a14"/>
    </linearGradient>
    <linearGradient id="accent" x1="0" y1="0" x2="1" y2="1">
      <stop offset="0%" stop-color="#c084fc"/>
      <stop offset="100%" stop-color="#2dd4bf"/>
    </linearGradient>
    <linearGradient id="glow" x1="0" y1="0" x2="0" y2="1">
      <stop offset="0%" stop-color="#c084fc" stop-opacity="0.15"/>
      <stop offset="100%" stop-color="#c084fc" stop-opacity="0"/>
    </linearGradient>
  </defs>

  <!-- Background -->
  <rect width="500" height="755" rx="12" fill="url(#bg)"/>

  <!-- Subtle glow at top -->
  <rect width="500" height="300" rx="12" fill="url(#glow)"/>

  <!-- Accent top border line -->
  <rect x="30" y="0" width="440" height="3" fill="url(#accent)" rx="1.5"/>

  <!-- Decorative dots pattern (top area) -->
  <g opacity="0.06">
    <circle cx="40" cy="60" r="2" fill="#c084fc"/>
    <circle cx="90" cy="60" r="2" fill="#c084fc"/>
    <circle cx="140" cy="60" r="2" fill="#c084fc"/>
    <circle cx="190" cy="60" r="2" fill="#c084fc"/>
    <circle cx="250" cy="60" r="2" fill="#2dd4bf"/>
    <circle cx="310" cy="60" r="2" fill="#2dd4bf"/>
    <circle cx="360" cy="60" r="2" fill="#2dd4bf"/>
    <circle cx="410" cy="60" r="2" fill="#c084fc"/>
    <circle cx="460" cy="60" r="2" fill="#c084fc"/>
  </g>

  <!-- Large initial letter (watermark) -->
  <text x="-10" y="500" font-family="serif" font-size="360" font-weight="900" fill="#c084fc" opacity="0.04">T</text>

  <!-- Avatar circle -->
  <circle cx="250" cy="120" r="45" fill="url(#accent)" opacity="0.15"/>
  <text x="250" y="138" font-family="sans-serif" font-size="42" font-weight="700" fill="#c084fc" text-anchor="middle">T</text>

  <!-- Name -->
  <text x="250" y="250" font-family="'Space Grotesk', sans-serif" font-size="34" font-weight="700" fill="#e2e8f0" text-anchor="middle" letter-spacing="3">THARANITHARAN</text>

  <!-- Divider line -->
  <rect x="170" y="280" width="160" height="2" fill="url(#accent)" rx="1"/>

  <!-- Role -->
  <text x="250" y="318" font-family="monospace" font-size="14" fill="#2dd4bf" text-anchor="middle" letter-spacing="4">FULL STACK DEVELOPER</text>

  <!-- Bottom decorative dots -->
  <g opacity="0.06">
    <circle cx="100" cy="460" r="3" fill="#c084fc"/>
    <circle cx="400" cy="460" r="3" fill="#2dd4bf"/>
    <circle cx="180" cy="500" r="2" fill="#c084fc"/>
    <circle cx="320" cy="500" r="2" fill="#2dd4bf"/>
    <circle cx="60" cy="540" r="2.5" fill="#c084fc"/>
    <circle cx="440" cy="540" r="2.5" fill="#2dd4bf"/>
  </g>

  <!-- Bottom accent bar -->
  <rect x="150" y="715" width="200" height="1" fill="#ffffff" opacity="0.08"/>
  <text x="250" y="733" font-family="monospace" font-size="8" fill="#ffffff" opacity="0.25" text-anchor="middle" letter-spacing="2">BUILDING WITH PURPOSE</text>
</svg>
